<?xml version="1.0" standalone="no"?>
<!DOCTYPE svg PUBLIC "-//W3C//DTD SVG 20010904//EN"
 "http://www.w3.org/TR/2001/REC-SVG-20010904/DTD/svg10.dtd">
<svg version="1.0" xmlns="http://www.w3.org/2000/svg"
 width="260.000000pt" height="260.000000pt" viewBox="0 0 260.000000 260.000000"
 preserveAspectRatio="xMidYMid meet">
<metadata>
Created by potrace 1.14, written by Peter Selinger 2001-2017
</metadata>
<g transform="translate(0.000000,260.000000) scale(0.100000,-0.100000)"
fill="#000000" stroke="none">
<path d="M1013 2407 c-53 -19 -53 -19 -128 -327 -2 -8 -29 -109 -61 -225 -31
-115 -58 -223 -61 -240 -3 -16 -11 -48 -18 -70 -12 -36 -28 -104 -39 -160 -3
-11 -16 -72 -29 -135 -27 -122 -52 -262 -62 -345 -4 -27 -8 -61 -10 -75 -16
-114 -16 -127 -3 -127 12 0 78 -18 174 -49 42 -13 142 -39 184 -48 60 -13 283
-77 451 -131 109 -35 491 -137 495 -132 2 1 6 18 9 37 3 19 8 43 11 52 3 9 7
25 9 35 10 47 108 350 145 448 46 122 89 242 95 265 7 27 101 274 123 320 48
106 123 305 121 324 0 5 3 12 8 15 4 3 16 27 25 53 l17 48 -46 20 c-25 11 -48
20 -50 20 -3 0 -19 6 -36 14 -41 19 -401 166 -487 199 -263 101 -447 159 -640
201 -98 22 -118 25 -140 25 -14 0 -40 -6 -57 -12z m572 -337 c17 -5 78 -22
136 -38 235 -66 519 -165 519 -181 0 -12 -88 -279 -103 -313 -14 -31 -28 -67
-32 -78 -1 -3 -8 -21 -16 -40 -9 -19 -28 -75 -43 -125 -15 -49 -44 -135 -63
-190 -46 -129 -126 -379 -138 -430 -16 -72 -17 -73 -85 -49 -44 16 -240 73
-271 79 -8 2 -40 11 -70 20 -30 9 -63 18 -74 21 -49 10 -268 73 -273 79 -3 3
5 49 18 103 13 53 25 102 26 107 5 26 59 222 90 325 67 221 88 285 96 288 5 2
6 7 4 11 -3 3 14 58 36 121 22 63 40 121 41 128 0 6 5 12 10 12 6 0 8 2 5 5
-5 5 35 155 46 174 5 7 34 1 141 -29z"/>
<path d="M300 2282 c-54 -4 -83 -19 -107 -55 -22 -31 -67 -198 -78 -286 -3
-24 -10 -63 -15 -85 -10 -46 -21 -151 -24 -229 -5 -115 60 -350 121 -440 37
-56 197 -215 251 -252 48 -32 62 -26 62 27 0 89 172 791 290 1185 16 56 30
104 30 107 0 8 -108 16 -295 22 -104 3 -192 7 -195 8 -3 1 -21 0 -40 -2z"/>
<path d="M261 815 c-1 -6 -30 -60 -66 -120 -36 -60 -65 -118 -65 -129 0 -25
322 -346 370 -368 30 -14 97 -17 444 -23 l409 -7 -7 28 c-18 73 -25 79 -101
80 -270 5 -643 166 -841 362 -53 52 -73 78 -131 168 -6 11 -12 14 -12 9z"/>
</g>
</svg>
